<svg xmlns="http://www.w3.org/2000/svg" width="20.495" height="20.495" viewBox="0 0 20.495 20.495" fill="#FFF">
  <path d="M16.197 8.55h-.91c-.19 0-.37.02-.55.052V6.545c0-.112-.012-.22-.032-.327.6-.443.99-1.148.99-1.948 0-1.49-1.37-2.685-2.882-2.386-.5-.526-1.213-.823-1.946-.786C10.4.42 9.62 0 8.79 0c-.676 0-1.314.268-1.784.734-.125-.05-.253-.092-.383-.122L6.46.58C6.332.56 6.206.55 6.077.547c-.19-.015-.37-.014-.55 0h-.05v.005C4.406.66 3.5 1.296 3.146 2.182c-1.055.2-1.855 1.13-1.855 2.24 0 .775.39 1.458.982 1.87-.012.083-.025.166-.025.253v12.31c0 .904.736 1.64 1.64 1.64h9.21c.904 0 1.64-.735 1.64-1.64V16.34c.18.033.36.053.55.053h.91c1.66 0 3.01-1.35 3.01-3.01V11.56c0-1.66-1.35-3.01-3.01-3.01zm-2.554 10.304c0 .302-.244.547-.547.547H3.888c-.302 0-.547-.244-.547-.546V6.544c0-.3.246-.546.548-.546h9.208c.303 0 .547.245.547.547v12.31zM14.13 5.28c-.282-.232-.64-.377-1.034-.377H3.888c-.417 0-.793.16-1.083.417-.256-.217-.42-.537-.42-.898 0-.65.528-1.182 1.18-1.184l.448-.002.087-.44c.102-.513.635-1.056 1.452-1.15h.603c.245.016.48.096.69.233l.45.298.304-.45c.267-.396.712-.634 1.19-.634.556 0 1.05.315 1.292.823l.184.387.42-.086c.57-.115 1.154.124 1.478.597l.24.352.4-.147c.16-.06.31-.088.46-.088.737 0 1.338.6 1.338 1.338 0 .405-.186.765-.472 1.01zm3.435 8.103c0 .754-.613 1.368-1.368 1.368h-.91c-.196 0-.38-.04-.55-.115V10.31c.17-.075.354-.117.55-.117h.91c.754 0 1.368.613 1.368 1.368v1.823z"/>
  <path d="M3.888 8.003h9.21v10.85h-9.21z"/>
</svg>